<?xml version="1.0" encoding="UTF-8"?>
<svg version="1.1" xmlns="http://www.w3.org/2000/svg" width="24" height="24">
<path d="M0 0 C0.66 0 1.32 0 2 0 C2.66 2.31 3.32 4.62 4 7 C5.11375 6.95875 6.2275 6.9175 7.375 6.875 C11 7 11 7 13 9 C11.02 10.32 9.04 11.64 7 13 C7.33 15.64 7.66 18.28 8 21 C7.2575 20.67 6.515 20.34 5.75 20 C1.20700072 18.34800026 -1.74456366 19.10869496 -6 21 C-5.731875 19.783125 -5.46375 18.56625 -5.1875 17.3125 C-4.82432666 15.13313307 -4.82432666 15.13313307 -5 13 C-7.27127334 9.97590636 -7.27127334 9.97590636 -10 8 C-9 7 -9 7 -5.4375 6.9375 C-4.303125 6.958125 -3.16875 6.97875 -2 7 C-1.34 4.69 -0.68 2.38 0 0 Z M0 9 C-0.66 9.66 -1.32 10.32 -2 11 C-1.01 12.485 -1.01 12.485 0 14 C0.99 14 1.98 14 3 14 C3.33 12.68 3.66 11.36 4 10 C2.10820797 9.3185177 2.10820797 9.3185177 0 9 Z " fill="#FAB204" transform="translate(11,1)"/>
</svg>
