<?xml version="1.0" encoding="UTF-8"?>
<svg version="1.1" xmlns="http://www.w3.org/2000/svg" width="24" height="24">
<path d="M0 0 C0.66 0 1.32 0 2 0 C3.25664978 2.90600261 4 4.79604584 4 8 C6.64 8 9.28 8 12 8 C11.154375 8.845625 10.30875 9.69125 9.4375 10.5625 C7.00572884 13.42461268 6.9910727 13.81550241 7.1875 17.875 C7.455625 18.90625 7.72375 19.9375 8 21 C7.2575 20.67 6.515 20.34 5.75 20 C1.20700072 18.34800026 -1.74456366 19.10869496 -6 21 C-5.731875 19.783125 -5.46375 18.56625 -5.1875 17.3125 C-4.82432666 15.13313307 -4.82432666 15.13313307 -5 13 C-7.27127334 9.97590636 -7.27127334 9.97590636 -10 8 C-7.36 8 -4.72 8 -2 8 C-1.855625 7.236875 -1.71125 6.47375 -1.5625 5.6875 C-1 3 -1 3 0 0 Z M1 9 C1.33 10.65 1.66 12.3 2 14 C2.33 13.01 2.66 12.02 3 11 C3.66 10.67 4.32 10.34 5 10 C3.68 9.67 2.36 9.34 1 9 Z " fill="#FAB104" transform="translate(11,1)"/>
</svg>
